ffmpeg version 3.4.8-0ubuntu0.2 Copyright (c) 2000-2020 the FFmpeg developers
  built with gcc 7 (Ubuntu 7.5.0-3ubuntu1~18.04)
  configuration: --prefix=/usr --extra-version=0ubuntu0.2 --toolchain=hardened --libdir=/usr/lib/x86_64-linux-gnu --incdir=/usr/include/x86_64-linux-gnu --enable-gpl --disable-stripping --enable-avresample --enable-avisynth --enable-gnutls --enable-ladspa --enable-libass --enable-libbluray --enable-libbs2b --enable-libcaca --enable-libcdio --enable-libflite --enable-libfontconfig --enable-libfreetype --enable-libfribidi --enable-libgme --enable-libgsm --enable-libmp3lame --enable-libmysofa --enable-libopenjpeg --enable-libopenmpt --enable-libopus --enable-libpulse --enable-librubberband --enable-librsvg --enable-libshine --enable-libsnappy --enable-libsoxr --enable-libspeex --enable-libssh --enable-libtheora --enable-libtwolame --enable-libvorbis --enable-libvpx --enable-libwavpack --enable-libwebp --enable-libx265 --enable-libxml2 --enable-libxvid --enable-libzmq --enable-libzvbi --enable-omx --enable-openal --enable-opengl --enable-sdl2 --enable-libdc1394 --enable-libdrm --enable-libiec61883 --enable-chromaprint --enable-frei0r --enable-libopencv --enable-libx264 --enable-shared
  libavutil      55. 78.100 / 55. 78.100
  libavcodec     57.107.100 / 57.107.100
  libavformat    57. 83.100 / 57. 83.100
  libavdevice    57. 10.100 / 57. 10.100
  libavfilter     6.107.100 /  6.107.100
  libavresample   3.  7.  0 /  3.  7.  0
  libswscale      4.  8.100 /  4.  8.100
  libswresample   2.  9.100 /  2.  9.100
  libpostproc    54.  7.100 / 54.  7.100
[rawvideo @ 0x556f429d6a20] Estimating duration from bitrate, this may be inaccurate
Input #0, rawvideo, from '../../SVC-Encoder-20220109T061506Z-001/SVC-Encoder/Dataset/RollerCoaster/ERP_8x8/tile_yuv/Tile_42_480x240.yuv':
  Duration: 00:00:10.00, start: 0.000000, bitrate: 41472 kb/s
    Stream #0:0: Video: rawvideo (I420 / 0x30323449), yuv420p, 480x240, 41472 kb/s, 30 tbr, 30 tbn, 30 tbc
Stream mapping:
  Stream #0:0 -> #0:0 (rawvideo (native) -> h264 (libx264))
Press [q] to stop, [?] for help
[libx264 @ 0x556f429e3c60] using cpu capabilities: MMX2 SSE2Fast LZCNT SSSE3 SSE4.2 AVX
[libx264 @ 0x556f429e3c60] profile High, level 2.1
Output #0, rawvideo, to 'RollerCoaster_Tile_42_480x240_x264_QP_36.h264':
  Metadata:
    encoder         : Lavf57.83.100
    Stream #0:0: Video: h264 (libx264), yuv420p, 480x240, q=-1--1, 30 fps, 30 tbn, 30 tbc
    Metadata:
      encoder         : Lavc57.107.100 libx264
    Side data:
      cpb: bitrate max/min/avg: 0/0/0 buffer size: 0 vbv_delay: -1
frame=  181 fps=0.0 q=42.0 PSNR=Y:nan U:nan V:nan *:nan size=      44kB time=00:00:04.60 bitrate=  77.5kbits/s speed=9.18x    frame=  300 fps=0.0 q=42.0 LPSNR=Y:inf U:inf V:inf *:inf size=      93kB time=00:00:09.93 bitrate=  76.4kbits/s speed=10.9x    
video:93kB audio:0kB subtitle:0kB other streams:0kB global headers:0kB muxing overhead: 0.000000%
[libx264 @ 0x556f429e3c60] frame I:2     Avg QP:33.90  size:  5960  PSNR Mean Y:33.66 U:42.39 V:44.38 Avg:35.19 Global:35.15
[libx264 @ 0x556f429e3c60] frame P:76    Avg QP:35.77  size:   785  PSNR Mean Y:32.07 U:42.50 V:44.21 Avg:33.67 Global:33.65
[libx264 @ 0x556f429e3c60] frame B:222   Avg QP:41.48  size:   105  PSNR Mean Y:31.92 U:42.44 V:44.15 Avg:33.52 Global:33.50
[libx264 @ 0x556f429e3c60] consecutive B-frames:  1.0%  0.7%  1.0% 97.3%
[libx264 @ 0x556f429e3c60] mb I  I16..4: 10.1% 77.4% 12.4%
[libx264 @ 0x556f429e3c60] mb P  I16..4:  0.1%  0.1%  0.0%  P16..4: 46.6%  7.8%  1.7%  0.0%  0.0%    skip:43.6%
[libx264 @ 0x556f429e3c60] mb B  I16..4:  0.0%  0.0%  0.0%  B16..8: 17.5%  0.1%  0.0%  direct: 0.0%  skip:82.4%  L0:26.9% L1:73.0% BI: 0.1%
[libx264 @ 0x556f429e3c60] 8x8 transform intra:76.0% inter:81.1%
[libx264 @ 0x556f429e3c60] coded y,uvDC,uvAC intra: 81.5% 62.5% 4.0% inter: 3.2% 1.4% 0.0%
[libx264 @ 0x556f429e3c60] i16 v,h,dc,p:  7% 14% 56% 24%
[libx264 @ 0x556f429e3c60] i8 v,h,dc,ddl,ddr,vr,hd,vl,hu:  5%  9% 16% 19%  5%  3%  7% 27%  9%
[libx264 @ 0x556f429e3c60] i4 v,h,dc,ddl,ddr,vr,hd,vl,hu:  6% 11% 13% 24%  5%  3%  8% 26%  4%
[libx264 @ 0x556f429e3c60] i8c dc,h,v,p: 66% 13% 15%  6%
[libx264 @ 0x556f429e3c60] Weighted P-Frames: Y:0.0% UV:0.0%
[libx264 @ 0x556f429e3c60] ref P L0: 64.9% 16.8% 15.6%  2.6%
[libx264 @ 0x556f429e3c60] ref B L0: 92.0%  7.3%  0.6%
[libx264 @ 0x556f429e3c60] ref B L1: 93.1%  6.9%
[libx264 @ 0x556f429e3c60] PSNR Mean Y:31.968 U:42.453 V:44.168 Avg:33.568 Global:33.549 kb/s:75.85
